<mxfile host="app.diagrams.net" agent="Mozilla/5.0 (Windows NT 10.0; Win64; x64) AppleWebKit/537.36 (KHTML, like Gecko) Chrome/128.0.0.0 Safari/537.36" version="24.7.16">
  <diagram name="Сторінка-1" id="sg_AovQOAlRPVP2MbBbo">
    <mxGraphModel dx="2547" dy="1922" grid="1" gridSize="10" guides="1" tooltips="1" connect="1" arrows="1" fold="1" page="1" pageScale="1" pageWidth="827" pageHeight="1169" math="0" shadow="0">
      <root>
        <mxCell id="0" />
        <mxCell id="1" parent="0" />
        <mxCell id="2VthVkV6U9Xf0mXh9X9m-2" value="person_ID" style="ellipse;whiteSpace=wrap;html=1;align=center;" vertex="1" parent="1">
          <mxGeometry x="150" y="-105" width="100" height="40" as="geometry" />
        </mxCell>
        <mxCell id="2VthVkV6U9Xf0mXh9X9m-3" value="first_name" style="ellipse;whiteSpace=wrap;html=1;align=center;" vertex="1" parent="1">
          <mxGeometry x="80" y="-55" width="100" height="40" as="geometry" />
        </mxCell>
        <mxCell id="2VthVkV6U9Xf0mXh9X9m-4" value="last_name&amp;nbsp;" style="ellipse;whiteSpace=wrap;html=1;align=center;" vertex="1" parent="1">
          <mxGeometry x="30" y="5" width="100" height="40" as="geometry" />
        </mxCell>
        <mxCell id="2VthVkV6U9Xf0mXh9X9m-5" value="email" style="ellipse;whiteSpace=wrap;html=1;align=center;" vertex="1" parent="1">
          <mxGeometry x="30" y="75" width="100" height="40" as="geometry" />
        </mxCell>
        <mxCell id="2VthVkV6U9Xf0mXh9X9m-6" value="phone_number" style="ellipse;whiteSpace=wrap;html=1;align=center;" vertex="1" parent="1">
          <mxGeometry x="50" y="135" width="100" height="40" as="geometry" />
        </mxCell>
        <mxCell id="2VthVkV6U9Xf0mXh9X9m-7" value="Person" style="whiteSpace=wrap;html=1;align=center;strokeColor=#FF0000;" vertex="1" parent="1">
          <mxGeometry x="190" y="25" width="100" height="40" as="geometry" />
        </mxCell>
        <mxCell id="2VthVkV6U9Xf0mXh9X9m-8" value="address" style="ellipse;whiteSpace=wrap;html=1;align=center;" vertex="1" parent="1">
          <mxGeometry x="100" y="195" width="100" height="40" as="geometry" />
        </mxCell>
        <mxCell id="2VthVkV6U9Xf0mXh9X9m-9" value="Employee" style="whiteSpace=wrap;html=1;align=center;strokeColor=#FF0000;" vertex="1" parent="1">
          <mxGeometry x="980" width="100" height="40" as="geometry" />
        </mxCell>
        <mxCell id="2VthVkV6U9Xf0mXh9X9m-10" value="employee_ID" style="ellipse;whiteSpace=wrap;html=1;align=center;" vertex="1" parent="1">
          <mxGeometry x="1050" y="-105" width="100" height="40" as="geometry" />
        </mxCell>
        <mxCell id="2VthVkV6U9Xf0mXh9X9m-11" value="person_ID" style="ellipse;whiteSpace=wrap;html=1;align=center;" vertex="1" parent="1">
          <mxGeometry x="1130" y="-55" width="100" height="40" as="geometry" />
        </mxCell>
        <mxCell id="2VthVkV6U9Xf0mXh9X9m-12" value="position&amp;nbsp;" style="ellipse;whiteSpace=wrap;html=1;align=center;" vertex="1" parent="1">
          <mxGeometry x="1170" y="5" width="100" height="40" as="geometry" />
        </mxCell>
        <mxCell id="2VthVkV6U9Xf0mXh9X9m-13" value="hire_date&amp;nbsp;" style="ellipse;whiteSpace=wrap;html=1;align=center;" vertex="1" parent="1">
          <mxGeometry x="1180" y="65" width="100" height="40" as="geometry" />
        </mxCell>
        <mxCell id="2VthVkV6U9Xf0mXh9X9m-14" value="salary" style="ellipse;whiteSpace=wrap;html=1;align=center;" vertex="1" parent="1">
          <mxGeometry x="1180" y="125" width="100" height="40" as="geometry" />
        </mxCell>
        <mxCell id="2VthVkV6U9Xf0mXh9X9m-15" value="department_ID" style="ellipse;whiteSpace=wrap;html=1;align=center;" vertex="1" parent="1">
          <mxGeometry x="1170" y="185" width="100" height="40" as="geometry" />
        </mxCell>
        <mxCell id="2VthVkV6U9Xf0mXh9X9m-16" value="team_ID" style="ellipse;whiteSpace=wrap;html=1;align=center;" vertex="1" parent="1">
          <mxGeometry x="1090" y="225" width="100" height="40" as="geometry" />
        </mxCell>
        <mxCell id="2VthVkV6U9Xf0mXh9X9m-17" value="Department&amp;nbsp;" style="whiteSpace=wrap;html=1;align=center;strokeColor=#FF0000;" vertex="1" parent="1">
          <mxGeometry x="1110" y="520" width="100" height="40" as="geometry" />
        </mxCell>
        <mxCell id="2VthVkV6U9Xf0mXh9X9m-18" value="department_ID" style="ellipse;whiteSpace=wrap;html=1;align=center;" vertex="1" parent="1">
          <mxGeometry x="1230" y="410" width="100" height="40" as="geometry" />
        </mxCell>
        <mxCell id="2VthVkV6U9Xf0mXh9X9m-19" value="firast_name" style="ellipse;whiteSpace=wrap;html=1;align=center;" vertex="1" parent="1">
          <mxGeometry x="1290" y="480" width="100" height="40" as="geometry" />
        </mxCell>
        <mxCell id="2VthVkV6U9Xf0mXh9X9m-20" value="manager_ID" style="ellipse;whiteSpace=wrap;html=1;align=center;" vertex="1" parent="1">
          <mxGeometry x="1290" y="560" width="100" height="40" as="geometry" />
        </mxCell>
        <mxCell id="2VthVkV6U9Xf0mXh9X9m-21" value="location" style="ellipse;whiteSpace=wrap;html=1;align=center;" vertex="1" parent="1">
          <mxGeometry x="1250" y="630" width="100" height="40" as="geometry" />
        </mxCell>
        <mxCell id="2VthVkV6U9Xf0mXh9X9m-22" value="Team&amp;nbsp;" style="whiteSpace=wrap;html=1;align=center;strokeColor=#FF0000;" vertex="1" parent="1">
          <mxGeometry x="-270" y="410" width="100" height="40" as="geometry" />
        </mxCell>
        <mxCell id="2VthVkV6U9Xf0mXh9X9m-23" value="team_ID" style="ellipse;whiteSpace=wrap;html=1;align=center;" vertex="1" parent="1">
          <mxGeometry x="-330" y="290" width="100" height="40" as="geometry" />
        </mxCell>
        <mxCell id="2VthVkV6U9Xf0mXh9X9m-24" value="team_name&amp;nbsp;" style="ellipse;whiteSpace=wrap;html=1;align=center;" vertex="1" parent="1">
          <mxGeometry x="-400" y="350" width="100" height="40" as="geometry" />
        </mxCell>
        <mxCell id="2VthVkV6U9Xf0mXh9X9m-25" value="manager_ID" style="ellipse;whiteSpace=wrap;html=1;align=center;" vertex="1" parent="1">
          <mxGeometry x="-420" y="420" width="100" height="40" as="geometry" />
        </mxCell>
        <mxCell id="2VthVkV6U9Xf0mXh9X9m-26" value="project_ID" style="ellipse;whiteSpace=wrap;html=1;align=center;" vertex="1" parent="1">
          <mxGeometry x="-410" y="500" width="100" height="40" as="geometry" />
        </mxCell>
        <mxCell id="2VthVkV6U9Xf0mXh9X9m-28" value="Product" style="whiteSpace=wrap;html=1;align=center;strokeColor=#FF0000;" vertex="1" parent="1">
          <mxGeometry x="1170" y="930" width="100" height="40" as="geometry" />
        </mxCell>
        <mxCell id="2VthVkV6U9Xf0mXh9X9m-29" value="product_ID" style="ellipse;whiteSpace=wrap;html=1;align=center;" vertex="1" parent="1">
          <mxGeometry x="1220" y="800" width="100" height="40" as="geometry" />
        </mxCell>
        <mxCell id="2VthVkV6U9Xf0mXh9X9m-30" value="product_name&amp;nbsp;" style="ellipse;whiteSpace=wrap;html=1;align=center;" vertex="1" parent="1">
          <mxGeometry x="1300" y="860" width="100" height="40" as="geometry" />
        </mxCell>
        <mxCell id="2VthVkV6U9Xf0mXh9X9m-31" value="release_date" style="ellipse;whiteSpace=wrap;html=1;align=center;" vertex="1" parent="1">
          <mxGeometry x="1330" y="920" width="100" height="40" as="geometry" />
        </mxCell>
        <mxCell id="2VthVkV6U9Xf0mXh9X9m-32" value="version" style="ellipse;whiteSpace=wrap;html=1;align=center;" vertex="1" parent="1">
          <mxGeometry x="1320" y="990" width="100" height="40" as="geometry" />
        </mxCell>
        <mxCell id="2VthVkV6U9Xf0mXh9X9m-33" value="client_ID" style="ellipse;whiteSpace=wrap;html=1;align=center;" vertex="1" parent="1">
          <mxGeometry x="1230" y="1030" width="100" height="40" as="geometry" />
        </mxCell>
        <mxCell id="2VthVkV6U9Xf0mXh9X9m-34" value="Project" style="whiteSpace=wrap;html=1;align=center;strokeColor=#FF0000;" vertex="1" parent="1">
          <mxGeometry x="-300" y="850" width="100" height="40" as="geometry" />
        </mxCell>
        <mxCell id="2VthVkV6U9Xf0mXh9X9m-35" value="project_ID" style="ellipse;whiteSpace=wrap;html=1;align=center;" vertex="1" parent="1">
          <mxGeometry x="-350" y="670" width="100" height="40" as="geometry" />
        </mxCell>
        <mxCell id="2VthVkV6U9Xf0mXh9X9m-36" value="project_name" style="ellipse;whiteSpace=wrap;html=1;align=center;" vertex="1" parent="1">
          <mxGeometry x="-410" y="720" width="100" height="40" as="geometry" />
        </mxCell>
        <mxCell id="2VthVkV6U9Xf0mXh9X9m-37" value="start_date&amp;nbsp;" style="ellipse;whiteSpace=wrap;html=1;align=center;" vertex="1" parent="1">
          <mxGeometry x="-440" y="780" width="100" height="40" as="geometry" />
        </mxCell>
        <mxCell id="2VthVkV6U9Xf0mXh9X9m-38" value="end_date" style="ellipse;whiteSpace=wrap;html=1;align=center;" vertex="1" parent="1">
          <mxGeometry x="-460" y="850" width="100" height="40" as="geometry" />
        </mxCell>
        <mxCell id="2VthVkV6U9Xf0mXh9X9m-39" value="status" style="ellipse;whiteSpace=wrap;html=1;align=center;" vertex="1" parent="1">
          <mxGeometry x="-450" y="910" width="100" height="40" as="geometry" />
        </mxCell>
        <mxCell id="2VthVkV6U9Xf0mXh9X9m-40" value="budget" style="ellipse;whiteSpace=wrap;html=1;align=center;" vertex="1" parent="1">
          <mxGeometry x="-400" y="970" width="100" height="40" as="geometry" />
        </mxCell>
        <mxCell id="2VthVkV6U9Xf0mXh9X9m-41" value="product_ID" style="ellipse;whiteSpace=wrap;html=1;align=center;" vertex="1" parent="1">
          <mxGeometry x="-310" y="1020" width="100" height="40" as="geometry" />
        </mxCell>
        <mxCell id="2VthVkV6U9Xf0mXh9X9m-43" value="Client&amp;nbsp;" style="whiteSpace=wrap;html=1;align=center;strokeColor=#FF0000;" vertex="1" parent="1">
          <mxGeometry x="500" y="920" width="100" height="40" as="geometry" />
        </mxCell>
        <mxCell id="2VthVkV6U9Xf0mXh9X9m-44" value="client_ID" style="ellipse;whiteSpace=wrap;html=1;align=center;" vertex="1" parent="1">
          <mxGeometry x="650" y="960" width="100" height="40" as="geometry" />
        </mxCell>
        <mxCell id="2VthVkV6U9Xf0mXh9X9m-46" value="" style="endArrow=none;html=1;rounded=0;" edge="1" parent="1" source="2VthVkV6U9Xf0mXh9X9m-2" target="2VthVkV6U9Xf0mXh9X9m-7">
          <mxGeometry relative="1" as="geometry">
            <mxPoint x="480" y="-35" as="sourcePoint" />
            <mxPoint x="640" y="-35" as="targetPoint" />
          </mxGeometry>
        </mxCell>
        <mxCell id="2VthVkV6U9Xf0mXh9X9m-53" value="" style="endArrow=none;html=1;rounded=0;" edge="1" parent="1" source="2VthVkV6U9Xf0mXh9X9m-3" target="2VthVkV6U9Xf0mXh9X9m-7">
          <mxGeometry relative="1" as="geometry">
            <mxPoint x="350" y="45" as="sourcePoint" />
            <mxPoint x="510" y="45" as="targetPoint" />
          </mxGeometry>
        </mxCell>
        <mxCell id="2VthVkV6U9Xf0mXh9X9m-54" value="" style="endArrow=none;html=1;rounded=0;" edge="1" parent="1" source="2VthVkV6U9Xf0mXh9X9m-4" target="2VthVkV6U9Xf0mXh9X9m-7">
          <mxGeometry relative="1" as="geometry">
            <mxPoint x="350" y="45" as="sourcePoint" />
            <mxPoint x="510" y="45" as="targetPoint" />
          </mxGeometry>
        </mxCell>
        <mxCell id="2VthVkV6U9Xf0mXh9X9m-55" value="" style="endArrow=none;html=1;rounded=0;" edge="1" parent="1" source="2VthVkV6U9Xf0mXh9X9m-5" target="2VthVkV6U9Xf0mXh9X9m-7">
          <mxGeometry relative="1" as="geometry">
            <mxPoint x="350" y="45" as="sourcePoint" />
            <mxPoint x="510" y="45" as="targetPoint" />
          </mxGeometry>
        </mxCell>
        <mxCell id="2VthVkV6U9Xf0mXh9X9m-56" value="" style="endArrow=none;html=1;rounded=0;" edge="1" parent="1" source="2VthVkV6U9Xf0mXh9X9m-6" target="2VthVkV6U9Xf0mXh9X9m-7">
          <mxGeometry relative="1" as="geometry">
            <mxPoint x="350" y="45" as="sourcePoint" />
            <mxPoint x="510" y="45" as="targetPoint" />
          </mxGeometry>
        </mxCell>
        <mxCell id="2VthVkV6U9Xf0mXh9X9m-57" value="" style="endArrow=none;html=1;rounded=0;" edge="1" parent="1" source="2VthVkV6U9Xf0mXh9X9m-8" target="2VthVkV6U9Xf0mXh9X9m-7">
          <mxGeometry relative="1" as="geometry">
            <mxPoint x="350" y="45" as="sourcePoint" />
            <mxPoint x="510" y="45" as="targetPoint" />
          </mxGeometry>
        </mxCell>
        <mxCell id="2VthVkV6U9Xf0mXh9X9m-58" value="" style="endArrow=none;html=1;rounded=0;" edge="1" parent="1" source="2VthVkV6U9Xf0mXh9X9m-23" target="2VthVkV6U9Xf0mXh9X9m-22">
          <mxGeometry relative="1" as="geometry">
            <mxPoint x="80" y="550" as="sourcePoint" />
            <mxPoint x="240" y="550" as="targetPoint" />
          </mxGeometry>
        </mxCell>
        <mxCell id="2VthVkV6U9Xf0mXh9X9m-59" value="" style="endArrow=none;html=1;rounded=0;" edge="1" parent="1" source="2VthVkV6U9Xf0mXh9X9m-24" target="2VthVkV6U9Xf0mXh9X9m-22">
          <mxGeometry relative="1" as="geometry">
            <mxPoint x="80" y="550" as="sourcePoint" />
            <mxPoint x="240" y="550" as="targetPoint" />
          </mxGeometry>
        </mxCell>
        <mxCell id="2VthVkV6U9Xf0mXh9X9m-60" value="" style="endArrow=none;html=1;rounded=0;" edge="1" parent="1" source="2VthVkV6U9Xf0mXh9X9m-25" target="2VthVkV6U9Xf0mXh9X9m-22">
          <mxGeometry relative="1" as="geometry">
            <mxPoint x="80" y="550" as="sourcePoint" />
            <mxPoint x="240" y="550" as="targetPoint" />
          </mxGeometry>
        </mxCell>
        <mxCell id="2VthVkV6U9Xf0mXh9X9m-61" value="" style="endArrow=none;html=1;rounded=0;" edge="1" parent="1" source="2VthVkV6U9Xf0mXh9X9m-26" target="2VthVkV6U9Xf0mXh9X9m-22">
          <mxGeometry relative="1" as="geometry">
            <mxPoint x="80" y="550" as="sourcePoint" />
            <mxPoint x="240" y="550" as="targetPoint" />
          </mxGeometry>
        </mxCell>
        <mxCell id="2VthVkV6U9Xf0mXh9X9m-62" value="" style="endArrow=none;html=1;rounded=0;" edge="1" parent="1" source="2VthVkV6U9Xf0mXh9X9m-35" target="2VthVkV6U9Xf0mXh9X9m-34">
          <mxGeometry relative="1" as="geometry">
            <mxPoint x="80" y="980" as="sourcePoint" />
            <mxPoint x="240" y="980" as="targetPoint" />
          </mxGeometry>
        </mxCell>
        <mxCell id="2VthVkV6U9Xf0mXh9X9m-63" value="" style="endArrow=none;html=1;rounded=0;" edge="1" parent="1" source="2VthVkV6U9Xf0mXh9X9m-36" target="2VthVkV6U9Xf0mXh9X9m-34">
          <mxGeometry relative="1" as="geometry">
            <mxPoint x="80" y="980" as="sourcePoint" />
            <mxPoint x="240" y="980" as="targetPoint" />
          </mxGeometry>
        </mxCell>
        <mxCell id="2VthVkV6U9Xf0mXh9X9m-64" value="" style="endArrow=none;html=1;rounded=0;" edge="1" parent="1" source="2VthVkV6U9Xf0mXh9X9m-37" target="2VthVkV6U9Xf0mXh9X9m-34">
          <mxGeometry relative="1" as="geometry">
            <mxPoint x="80" y="980" as="sourcePoint" />
            <mxPoint x="240" y="980" as="targetPoint" />
          </mxGeometry>
        </mxCell>
        <mxCell id="2VthVkV6U9Xf0mXh9X9m-65" value="" style="endArrow=none;html=1;rounded=0;" edge="1" parent="1" source="2VthVkV6U9Xf0mXh9X9m-38" target="2VthVkV6U9Xf0mXh9X9m-34">
          <mxGeometry relative="1" as="geometry">
            <mxPoint x="80" y="980" as="sourcePoint" />
            <mxPoint x="240" y="980" as="targetPoint" />
          </mxGeometry>
        </mxCell>
        <mxCell id="2VthVkV6U9Xf0mXh9X9m-66" value="" style="endArrow=none;html=1;rounded=0;" edge="1" parent="1" source="2VthVkV6U9Xf0mXh9X9m-39" target="2VthVkV6U9Xf0mXh9X9m-34">
          <mxGeometry relative="1" as="geometry">
            <mxPoint x="80" y="980" as="sourcePoint" />
            <mxPoint x="240" y="980" as="targetPoint" />
          </mxGeometry>
        </mxCell>
        <mxCell id="2VthVkV6U9Xf0mXh9X9m-67" value="" style="endArrow=none;html=1;rounded=0;" edge="1" parent="1" source="2VthVkV6U9Xf0mXh9X9m-40" target="2VthVkV6U9Xf0mXh9X9m-34">
          <mxGeometry relative="1" as="geometry">
            <mxPoint x="80" y="980" as="sourcePoint" />
            <mxPoint x="240" y="980" as="targetPoint" />
          </mxGeometry>
        </mxCell>
        <mxCell id="2VthVkV6U9Xf0mXh9X9m-68" value="" style="endArrow=none;html=1;rounded=0;" edge="1" parent="1" source="2VthVkV6U9Xf0mXh9X9m-41" target="2VthVkV6U9Xf0mXh9X9m-34">
          <mxGeometry relative="1" as="geometry">
            <mxPoint x="80" y="980" as="sourcePoint" />
            <mxPoint x="240" y="980" as="targetPoint" />
          </mxGeometry>
        </mxCell>
        <mxCell id="2VthVkV6U9Xf0mXh9X9m-69" value="" style="endArrow=none;html=1;rounded=0;" edge="1" parent="1" source="2VthVkV6U9Xf0mXh9X9m-10" target="2VthVkV6U9Xf0mXh9X9m-9">
          <mxGeometry relative="1" as="geometry">
            <mxPoint x="830" y="70" as="sourcePoint" />
            <mxPoint x="990" y="70" as="targetPoint" />
          </mxGeometry>
        </mxCell>
        <mxCell id="2VthVkV6U9Xf0mXh9X9m-70" value="" style="endArrow=none;html=1;rounded=0;" edge="1" parent="1" source="2VthVkV6U9Xf0mXh9X9m-11" target="2VthVkV6U9Xf0mXh9X9m-9">
          <mxGeometry relative="1" as="geometry">
            <mxPoint x="830" y="70" as="sourcePoint" />
            <mxPoint x="990" y="70" as="targetPoint" />
          </mxGeometry>
        </mxCell>
        <mxCell id="2VthVkV6U9Xf0mXh9X9m-71" value="" style="endArrow=none;html=1;rounded=0;" edge="1" parent="1" source="2VthVkV6U9Xf0mXh9X9m-12" target="2VthVkV6U9Xf0mXh9X9m-9">
          <mxGeometry relative="1" as="geometry">
            <mxPoint x="830" y="70" as="sourcePoint" />
            <mxPoint x="990" y="70" as="targetPoint" />
          </mxGeometry>
        </mxCell>
        <mxCell id="2VthVkV6U9Xf0mXh9X9m-72" value="" style="endArrow=none;html=1;rounded=0;" edge="1" parent="1" source="2VthVkV6U9Xf0mXh9X9m-13" target="2VthVkV6U9Xf0mXh9X9m-9">
          <mxGeometry relative="1" as="geometry">
            <mxPoint x="830" y="70" as="sourcePoint" />
            <mxPoint x="990" y="70" as="targetPoint" />
          </mxGeometry>
        </mxCell>
        <mxCell id="2VthVkV6U9Xf0mXh9X9m-73" value="" style="endArrow=none;html=1;rounded=0;" edge="1" parent="1" source="2VthVkV6U9Xf0mXh9X9m-14" target="2VthVkV6U9Xf0mXh9X9m-9">
          <mxGeometry relative="1" as="geometry">
            <mxPoint x="830" y="70" as="sourcePoint" />
            <mxPoint x="990" y="70" as="targetPoint" />
          </mxGeometry>
        </mxCell>
        <mxCell id="2VthVkV6U9Xf0mXh9X9m-74" value="" style="endArrow=none;html=1;rounded=0;" edge="1" parent="1" source="2VthVkV6U9Xf0mXh9X9m-15" target="2VthVkV6U9Xf0mXh9X9m-9">
          <mxGeometry relative="1" as="geometry">
            <mxPoint x="830" y="70" as="sourcePoint" />
            <mxPoint x="990" y="70" as="targetPoint" />
          </mxGeometry>
        </mxCell>
        <mxCell id="2VthVkV6U9Xf0mXh9X9m-75" value="" style="endArrow=none;html=1;rounded=0;" edge="1" parent="1" source="2VthVkV6U9Xf0mXh9X9m-16" target="2VthVkV6U9Xf0mXh9X9m-9">
          <mxGeometry relative="1" as="geometry">
            <mxPoint x="830" y="70" as="sourcePoint" />
            <mxPoint x="990" y="70" as="targetPoint" />
          </mxGeometry>
        </mxCell>
        <mxCell id="2VthVkV6U9Xf0mXh9X9m-76" value="" style="endArrow=none;html=1;rounded=0;" edge="1" parent="1" source="2VthVkV6U9Xf0mXh9X9m-18" target="2VthVkV6U9Xf0mXh9X9m-17">
          <mxGeometry relative="1" as="geometry">
            <mxPoint x="830" y="650" as="sourcePoint" />
            <mxPoint x="990" y="650" as="targetPoint" />
          </mxGeometry>
        </mxCell>
        <mxCell id="2VthVkV6U9Xf0mXh9X9m-77" value="" style="endArrow=none;html=1;rounded=0;" edge="1" parent="1" source="2VthVkV6U9Xf0mXh9X9m-19" target="2VthVkV6U9Xf0mXh9X9m-17">
          <mxGeometry relative="1" as="geometry">
            <mxPoint x="830" y="650" as="sourcePoint" />
            <mxPoint x="990" y="650" as="targetPoint" />
          </mxGeometry>
        </mxCell>
        <mxCell id="2VthVkV6U9Xf0mXh9X9m-78" value="" style="endArrow=none;html=1;rounded=0;" edge="1" parent="1" source="2VthVkV6U9Xf0mXh9X9m-20" target="2VthVkV6U9Xf0mXh9X9m-17">
          <mxGeometry relative="1" as="geometry">
            <mxPoint x="830" y="650" as="sourcePoint" />
            <mxPoint x="990" y="650" as="targetPoint" />
          </mxGeometry>
        </mxCell>
        <mxCell id="2VthVkV6U9Xf0mXh9X9m-79" value="" style="endArrow=none;html=1;rounded=0;" edge="1" parent="1" source="2VthVkV6U9Xf0mXh9X9m-29" target="2VthVkV6U9Xf0mXh9X9m-28">
          <mxGeometry relative="1" as="geometry">
            <mxPoint x="830" y="650" as="sourcePoint" />
            <mxPoint x="990" y="650" as="targetPoint" />
          </mxGeometry>
        </mxCell>
        <mxCell id="2VthVkV6U9Xf0mXh9X9m-80" value="" style="endArrow=none;html=1;rounded=0;" edge="1" parent="1" source="2VthVkV6U9Xf0mXh9X9m-21" target="2VthVkV6U9Xf0mXh9X9m-17">
          <mxGeometry relative="1" as="geometry">
            <mxPoint x="830" y="650" as="sourcePoint" />
            <mxPoint x="990" y="650" as="targetPoint" />
          </mxGeometry>
        </mxCell>
        <mxCell id="2VthVkV6U9Xf0mXh9X9m-81" value="" style="endArrow=none;html=1;rounded=0;" edge="1" parent="1" source="2VthVkV6U9Xf0mXh9X9m-30" target="2VthVkV6U9Xf0mXh9X9m-28">
          <mxGeometry relative="1" as="geometry">
            <mxPoint x="830" y="880" as="sourcePoint" />
            <mxPoint x="990" y="880" as="targetPoint" />
          </mxGeometry>
        </mxCell>
        <mxCell id="2VthVkV6U9Xf0mXh9X9m-82" value="" style="endArrow=none;html=1;rounded=0;" edge="1" parent="1" source="2VthVkV6U9Xf0mXh9X9m-31" target="2VthVkV6U9Xf0mXh9X9m-28">
          <mxGeometry relative="1" as="geometry">
            <mxPoint x="830" y="880" as="sourcePoint" />
            <mxPoint x="990" y="880" as="targetPoint" />
          </mxGeometry>
        </mxCell>
        <mxCell id="2VthVkV6U9Xf0mXh9X9m-83" value="" style="endArrow=none;html=1;rounded=0;" edge="1" parent="1" source="2VthVkV6U9Xf0mXh9X9m-32" target="2VthVkV6U9Xf0mXh9X9m-28">
          <mxGeometry relative="1" as="geometry">
            <mxPoint x="830" y="880" as="sourcePoint" />
            <mxPoint x="990" y="880" as="targetPoint" />
          </mxGeometry>
        </mxCell>
        <mxCell id="2VthVkV6U9Xf0mXh9X9m-84" value="" style="endArrow=none;html=1;rounded=0;" edge="1" parent="1" source="2VthVkV6U9Xf0mXh9X9m-33" target="2VthVkV6U9Xf0mXh9X9m-28">
          <mxGeometry relative="1" as="geometry">
            <mxPoint x="830" y="880" as="sourcePoint" />
            <mxPoint x="990" y="880" as="targetPoint" />
          </mxGeometry>
        </mxCell>
        <mxCell id="2VthVkV6U9Xf0mXh9X9m-85" value="" style="shape=rhombus;html=1;dashed=0;whiteSpace=wrap;perimeter=rhombusPerimeter;strokeColor=#3399FF;" vertex="1" parent="1">
          <mxGeometry x="480" y="80" width="100" height="60" as="geometry" />
        </mxCell>
        <mxCell id="2VthVkV6U9Xf0mXh9X9m-88" value="work_for" style="shape=rhombus;html=1;dashed=0;whiteSpace=wrap;perimeter=rhombusPerimeter;strokeColor=#3399FF;" vertex="1" parent="1">
          <mxGeometry x="860" y="310" width="100" height="50" as="geometry" />
        </mxCell>
      </root>
    </mxGraphModel>
  </diagram>
</mxfile>
